<svg version="1.2" xmlns="http://www.w3.org/2000/svg" viewBox="0 0 1344 1277" width="1344" height="1277">
	<title>acme (3)-svg</title>
	<style>
		.s0 { fill: #000000 } 
	</style>
	<path class="s0" d="m2568.8 1076.3v-543.9q0-62.5-25.4-108.4-24.4-46.9-74.2-72.3-49.8-25.4-123-25.4-68.4 0-120.2 23.5-50.7 23.4-80 61.5-28.3 38.1-28.4 82h-180.6q0-56.6 29.3-112.3 29.3-55.6 84-100.6 55.6-45.9 132.8-72.2 78.1-27.4 173.8-27.4 115.2 0 203.1 39.1 88.9 39.1 138.7 118.2 50.8 78.1 50.8 196.2v492.2q0 52.8 8.8 112.3 9.7 59.6 28.3 102.6v15.6h-188.5q-13.6-31.2-21.5-83-7.8-52.7-7.8-97.7zm31.3-459.9l1.9 126.9h-182.6q-77.1 0-137.7 12.7-60.5 11.7-101.6 36.2-41 24.4-62.5 61.5-21.4 36.1-21.4 84.9 0 49.8 22.4 90.9 22.5 41 67.4 65.4 45.9 23.4 112.3 23.4 83 0 146.5-35.1 63.5-35.2 100.6-86 38.1-50.7 41-98.6l77.1 86.9q-6.8 41-37.1 90.8-30.2 49.8-81 95.7-49.8 45-119.2 75.2-68.3 29.3-154.3 29.3-107.4 0-188.4-42-80.1-42-125-112.3-44-71.2-44-159.2 0-84.9 33.2-149.4 33.2-65.4 95.7-108.4 62.5-43.9 150.4-66.4 87.9-22.4 196.3-22.4zm836.5 511.7q64.4 0 119.1-26.4 54.7-26.3 89.8-72.2 35.2-46.9 40.1-106.5h171.9q-4.9 93.8-63.5 174.8-57.6 80.1-151.4 129.9-93.7 48.8-206 48.8-119.2 0-208.1-42-87.8-42-146.4-115.2-57.7-73.2-87-168-28.3-95.7-28.3-202.1v-41q0-106.5 28.3-201.2 29.3-95.7 87-168.9 58.6-73.3 146.4-115.3 88.9-42 208.1-42 124 0 216.8 50.8 92.7 49.8 145.5 136.7 53.7 86 58.6 195.3h-171.9q-4.9-65.4-37.1-118.1-31.3-52.8-86-84-53.7-32.2-125.9-32.2-83.1 0-139.7 33.2-55.7 32.2-88.9 87.9-32.2 54.6-46.8 122-13.7 66.4-13.7 135.8v41q0 69.3 13.7 136.7 13.6 67.4 45.9 122.1 33.2 54.7 88.8 87.9 56.7 32.2 140.7 32.2zm783.7-717.8v846.7h-181.7v-1056.6h171.9zm-37.1 278.3l-84-3q1-108.3 28.3-200.1 27.4-92.8 81.1-161.2 53.7-68.3 133.8-105.4 80.1-38.1 185.5-38.1 74.2 0 136.7 21.5 62.5 20.5 108.4 65.4 45.9 44.9 71.3 115.2 25.4 70.3 25.4 169.9v704.1h-180.7v-695.3q0-83-28.3-132.8-27.3-49.8-78.1-72.3-50.8-23.4-119.1-23.4-80.1 0-133.8 28.3-53.7 28.4-86 78.2-32.2 49.8-46.8 114.2-13.7 63.5-13.7 134.8zm684.6-99.6l-121.1 37.1q0.9-86.9 28.3-167 28.3-80.1 81-142.6 53.8-62.5 131.9-98.6 78.1-37.1 178.7-37.1 84.9 0 150.4 22.4 66.4 22.5 111.3 69.4 45.9 45.9 69.3 118.1 23.5 72.3 23.5 171.9v694.3h-181.7v-696.3q0-88.8-28.3-137.6-27.3-49.9-78.1-69.4-49.8-20.5-119.1-20.5-59.6 0-105.5 20.5-45.9 20.5-77.2 56.7-31.2 35.1-47.8 81-15.6 45.9-15.6 97.7zm1345.2 687.5q-110.4 0-200.2-37.1-88.9-38.1-153.3-106.5-63.5-68.3-97.7-162.1-34.2-93.7-34.2-205.1v-41q0-128.9 38.1-229.5 38.1-101.5 103.6-171.9 65.4-70.3 148.4-106.4 83-36.1 171.9-36.1 113.2 0 195.3 39 83 39.1 135.7 109.4 52.7 69.3 78.1 164.1 25.4 93.7 25.4 205v81.1h-789v-147.5h608.4v-13.6q-3.9-70.3-29.3-136.8-24.4-66.4-78.2-109.3-53.7-43-146.4-43-61.6 0-113.3 26.4-51.8 25.4-88.9 76.1-37.1 50.8-57.6 124.1-20.5 73.2-20.5 168.9v41q0 75.2 20.5 141.6 21.5 65.5 61.5 115.3 41 49.8 98.7 78.1 58.5 28.3 132.8 28.3 95.7 0 162.1-39.1 66.4-39 116.2-104.4l109.4 86.9q-34.2 51.7-87 98.6-52.7 46.9-129.8 76.2-76.2 29.3-180.7 29.3z"/>
	<path fill-rule="evenodd" class="s0" d="m178 1260v-567.7l-106.8 83.2-71.2-96.9 178-139.2v-187.8h118.6v95.4l355.9-277 652.6 508.6-71.2 95.4-106.8-81.7v567.7zm118.6-363.3h711.9v-121.2h-711.9zm0-242.2h711.9v-54.5l-86-66.6h-539.8l-86.1 66.6zm240.3-242.2h231.3l-115.6-89.3zm-240.3 726.6h711.9v-121.1h-711.9zm-118.6-847.8q0-75.7 51.9-128.7 51.9-52.9 126-52.9 25.2 0 42.3-17.5 17.1-17.4 17.1-43.1h118.6q0 75.7-51.9 128.7-51.9 53-126.1 53-25.2 0-42.2 17.4-17.1 17.4-17.1 43.1z"/>
</svg>