<!-- Generated by IcoMoon.io -->
<svg version="1.1" xmlns="http://www.w3.org/2000/svg" width="1078" height="1024" viewBox="0 0 1078 1024">
<g id="icomoon-ignore">
</g>
<path fill="#000" d="M142.735 1010.368v-455.227l-85.641 66.716-57.094-77.702 142.735-111.622v-150.593h95.103v76.499l285.389-222.121 523.306 407.836-57.094 76.499-85.641-65.514v455.227zM237.837 719.045h570.858v-97.188h-570.858zM237.837 524.83h570.858v-43.702l-68.962-53.405h-432.855l-69.042 53.405zM430.529 330.615h185.475l-92.697-71.608zM237.837 913.26h570.858v-97.108h-570.858zM142.735 233.427q0-60.702 41.618-103.202 41.618-42.419 101.037-42.419 20.207 0 33.919-14.033 13.712-13.953 13.712-34.561h95.103q0 60.702-41.618 103.202t-101.117 42.5q-20.207 0-33.839 13.953-13.712 13.953-13.712 34.561z"></path>
</svg>
